<?xml version="1.0" encoding="UTF-8" standalone="no"?><svg height="829px" style="background-color: rgb(42, 42, 42);" viewBox="-0.5 -0.5 1171 829" width="1171px" xmlns="http://www.w3.org/2000/svg"><g><circle cx="86" cy="6" fill="none" r="5" stroke="rgb(240, 240, 240)" stroke-width="0.5"/><text fill="white" font-size="6" text-anchor="middle" x="86" y="9">1</text><circle cx="6" cy="26" fill="none" r="5" stroke="rgb(240, 240, 240)" stroke-width="0.5"/><text fill="white" font-size="6" text-anchor="middle" x="6" y="29">2</text><circle cx="-34" cy="46" fill="none" r="5" stroke="rgb(240, 240, 240)" stroke-width="0.5"/><text fill="white" font-size="6" text-anchor="middle" x="-34" y="49">3</text><circle cx="-54" cy="66" fill="none" r="5" stroke="rgb(240, 240, 240)" stroke-width="0.5"/><text fill="white" font-size="6" text-anchor="middle" x="-54" y="69">4</text><circle cx="-14" cy="66" fill="none" r="5" stroke="rgb(240, 240, 240)" stroke-width="0.5"/><text fill="white" font-size="6" text-anchor="middle" x="-14" y="69">4</text><circle cx="46" cy="46" fill="none" r="5" stroke="rgb(240, 240, 240)" stroke-width="0.5"/><text fill="white" font-size="6" text-anchor="middle" x="46" y="49">3</text><circle cx="26" cy="66" fill="none" r="5" stroke="rgb(240, 240, 240)" stroke-width="0.5"/><text fill="white" font-size="6" text-anchor="middle" x="26" y="69">4</text><circle cx="66" cy="66" fill="none" r="5" stroke="rgb(240, 240, 240)" stroke-width="0.5"/><text fill="white" font-size="6" text-anchor="middle" x="66" y="69">4</text><circle cx="166" cy="26" fill="none" r="5" stroke="rgb(240, 240, 240)" stroke-width="0.5"/><text fill="white" font-size="6" text-anchor="middle" x="166" y="29">2</text><circle cx="126" cy="46" fill="none" r="5" stroke="rgb(240, 240, 240)" stroke-width="0.5"/><text fill="white" font-size="6" text-anchor="middle" x="126" y="49">3</text><circle cx="106" cy="66" fill="none" r="5" stroke="rgb(240, 240, 240)" stroke-width="0.5"/><text fill="white" font-size="6" text-anchor="middle" x="106" y="69">4</text><circle cx="146" cy="66" fill="none" r="5" stroke="rgb(240, 240, 240)" stroke-width="0.5"/><text fill="white" font-size="6" text-anchor="middle" x="146" y="69">4</text><circle cx="206" cy="46" fill="none" r="5" stroke="rgb(240, 240, 240)" stroke-width="0.5"/><text fill="white" font-size="6" text-anchor="middle" x="206" y="49">3</text><circle cx="186" cy="66" fill="none" r="5" stroke="rgb(240, 240, 240)" stroke-width="0.5"/><text fill="white" font-size="6" text-anchor="middle" x="186" y="69">4</text><circle cx="226" cy="66" fill="none" r="5" stroke="rgb(240, 240, 240)" stroke-width="0.5"/><text fill="white" font-size="6" text-anchor="middle" x="226" y="69">4</text></g></svg>